<svg width="82" height="59" viewBox="0 0 82 59" fill="none" xmlns="http://www.w3.org/2000/svg">
<path d="M24.8906 1.00781V58H13.6406V13.9766L0.124999 18.2734V9.40625L23.6797 1.00781H24.8906ZM81.6875 24.5625V34.4062C81.6875 38.6771 81.2318 42.362 80.3203 45.4609C79.4088 48.5338 78.0937 51.0599 76.375 53.0391C74.6823 54.9922 72.6641 56.4375 70.3203 57.375C67.9766 58.3125 65.3724 58.7812 62.5078 58.7812C60.2161 58.7812 58.0807 58.4948 56.1016 57.9219C54.1224 57.3229 52.3385 56.3984 50.75 55.1484C49.1875 53.8984 47.8333 52.3229 46.6875 50.4219C45.5677 48.4948 44.7083 46.2031 44.1094 43.5469C43.5104 40.8906 43.2109 37.8437 43.2109 34.4062V24.5625C43.2109 20.2917 43.6667 16.6328 44.5781 13.5859C45.5156 10.513 46.8307 8 48.5234 6.04687C50.2422 4.09375 52.2734 2.66146 54.6172 1.75C56.9609 0.812498 59.5651 0.343748 62.4297 0.343748C64.7213 0.343748 66.8437 0.643227 68.7969 1.24219C70.776 1.8151 72.5599 2.71354 74.1484 3.9375C75.737 5.16146 77.0911 6.73698 78.2109 8.66406C79.3307 10.5651 80.1901 12.8437 80.7891 15.5C81.388 18.1302 81.6875 21.151 81.6875 24.5625ZM70.3984 35.8906V23.0391C70.3984 20.9818 70.2812 19.1849 70.0469 17.6484C69.8385 16.112 69.513 14.8099 69.0703 13.7422C68.6276 12.6484 68.0807 11.763 67.4297 11.0859C66.7786 10.4089 66.0365 9.91406 65.2031 9.60156C64.3698 9.28906 63.4453 9.13281 62.4297 9.13281C61.1536 9.13281 60.0208 9.38021 59.0312 9.875C58.0677 10.3698 57.2474 11.1641 56.5703 12.2578C55.8932 13.3255 55.3724 14.7578 55.0078 16.5547C54.6693 18.3255 54.5 20.487 54.5 23.0391V35.8906C54.5 37.9479 54.6042 39.7578 54.8125 41.3203C55.0469 42.8828 55.3854 44.224 55.8281 45.3437C56.2969 46.4375 56.8437 47.3359 57.4687 48.0391C58.1198 48.7161 58.862 49.2109 59.6953 49.5234C60.5547 49.8359 61.4922 49.9922 62.5078 49.9922C63.7578 49.9922 64.8646 49.7448 65.8281 49.25C66.8177 48.7292 67.651 47.9219 68.3281 46.8281C69.0312 45.7083 69.5521 44.25 69.8906 42.4531C70.2292 40.6562 70.3984 38.4687 70.3984 35.8906Z" fill="#F24822"/>
</svg>
