<svg width="41" height="58" viewBox="0 0 41 58" fill="none" xmlns="http://www.w3.org/2000/svg">
<path d="M40.3437 49.2109V58H1.4375V50.5L19.8359 30.7734C21.6849 28.7161 23.1432 26.9062 24.2109 25.3437C25.2786 23.7552 26.0469 22.3359 26.5156 21.0859C27.0104 19.8099 27.2578 18.599 27.2578 17.4531C27.2578 15.7344 26.9714 14.263 26.3984 13.0391C25.8255 11.7891 24.9792 10.8255 23.8594 10.1484C22.7656 9.47135 21.4115 9.13281 19.7969 9.13281C18.0781 9.13281 16.5937 9.54948 15.3437 10.3828C14.1198 11.2161 13.1823 12.375 12.5312 13.8594C11.9062 15.3437 11.5937 17.0234 11.5937 18.8984H0.304685C0.304685 15.513 1.11198 12.4141 2.72656 9.60156C4.34114 6.76302 6.61979 4.51041 9.5625 2.84375C12.5052 1.15104 15.9948 0.304686 20.0312 0.304686C24.0156 0.304686 27.375 0.955727 30.1094 2.25781C32.8698 3.53385 34.9531 5.38281 36.3594 7.80469C37.7917 10.2005 38.5078 13.0651 38.5078 16.3984C38.5078 18.2734 38.2083 20.1094 37.6094 21.9062C37.0104 23.6771 36.151 25.4479 35.0312 27.2187C33.9375 28.9635 32.6094 30.7344 31.0469 32.5312C29.4844 34.3281 27.7526 36.1901 25.8516 38.1172L15.9687 49.2109H40.3437Z" fill="#F24822"/>
</svg>
