<svg width="40" height="59" viewBox="0 0 40 59" fill="none" xmlns="http://www.w3.org/2000/svg">
<path d="M12.9609 24.6797H18.9766C20.9036 24.6797 22.4922 24.3542 23.7422 23.7031C24.9922 23.026 25.9167 22.0885 26.5156 20.8906C27.1406 19.6667 27.4531 18.2474 27.4531 16.6328C27.4531 15.1745 27.1667 13.8854 26.5937 12.7656C26.0469 11.6198 25.2005 10.7344 24.0547 10.1094C22.9089 9.45833 21.4635 9.13281 19.7187 9.13281C18.3385 9.13281 17.0625 9.40625 15.8906 9.95312C14.7187 10.5 13.7812 11.2682 13.0781 12.2578C12.375 13.2474 12.0234 14.4453 12.0234 15.8516H0.734373C0.734373 12.7266 1.56771 10.0052 3.23437 7.6875C4.92708 5.36979 7.19271 3.55989 10.0312 2.25781C12.8698 0.955727 15.9948 0.304686 19.4062 0.304686C23.2604 0.304686 26.6328 0.929686 29.5234 2.17969C32.4141 3.40364 34.6667 5.21354 36.2812 7.60937C37.8958 10.0052 38.7031 12.974 38.7031 16.5156C38.7031 18.3125 38.2865 20.0573 37.4531 21.75C36.6198 23.4167 35.4219 24.9271 33.8594 26.2812C32.3229 27.6094 30.4479 28.6771 28.2344 29.4844C26.0208 30.2656 23.5339 30.6562 20.7734 30.6562H12.9609V24.6797ZM12.9609 33.2344V27.4141H20.7734C23.8724 27.4141 26.5937 27.7656 28.9375 28.4687C31.2812 29.1719 33.2474 30.1875 34.8359 31.5156C36.4245 32.8177 37.6224 34.3672 38.4297 36.1641C39.237 37.9349 39.6406 39.901 39.6406 42.0625C39.6406 44.7187 39.1328 47.0885 38.1172 49.1719C37.1016 51.2292 35.6693 52.974 33.8203 54.4062C31.9974 55.8385 29.862 56.9323 27.4141 57.6875C24.9661 58.4167 22.2969 58.7812 19.4062 58.7812C17.0104 58.7812 14.6536 58.4557 12.3359 57.8047C10.0443 57.1276 7.96093 56.125 6.08593 54.7969C4.23698 53.4427 2.7526 51.75 1.63281 49.7187C0.53906 47.6615 -0.00781494 45.2266 -0.00781494 42.4141H11.2812C11.2812 43.8724 11.6458 45.1745 12.375 46.3203C13.1042 47.4661 14.1068 48.3646 15.3828 49.0156C16.6849 49.6667 18.1302 49.9922 19.7187 49.9922C21.5156 49.9922 23.0521 49.6667 24.3281 49.0156C25.6302 48.3385 26.6198 47.401 27.2969 46.2031C28 44.9792 28.3516 43.5599 28.3516 41.9453C28.3516 39.862 27.974 38.1953 27.2187 36.9453C26.4635 35.6693 25.3828 34.7318 23.9766 34.1328C22.5703 33.5339 20.9036 33.2344 18.9766 33.2344H12.9609Z" fill="#F24822"/>
</svg>
