<svg width="40" height="58" viewBox="0 0 40 58" fill="none" xmlns="http://www.w3.org/2000/svg">
<path d="M11.0234 31.1016L2.03906 28.9531L5.28125 0.124998H37.2344V9.22656H14.5391L13.1328 21.8437C13.888 21.401 15.0339 20.9323 16.5703 20.4375C18.1068 19.9167 19.8255 19.6562 21.7266 19.6562C24.487 19.6562 26.9349 20.0859 29.0703 20.9453C31.2057 21.8047 33.0156 23.0547 34.5 24.6953C36.0104 26.3359 37.1562 28.3411 37.9375 30.7109C38.7187 33.0807 39.1094 35.763 39.1094 38.7578C39.1094 41.2838 38.7187 43.6927 37.9375 45.9844C37.1562 48.25 35.9713 50.2812 34.3828 52.0781C32.7943 53.849 30.8021 55.2422 28.4062 56.2578C26.0104 57.2734 23.1719 57.7812 19.8906 57.7812C17.4427 57.7812 15.0729 57.4167 12.7812 56.6875C10.5156 55.9583 8.47135 54.8776 6.64843 53.4453C4.85156 52.013 3.40625 50.2812 2.3125 48.25C1.24479 46.1927 0.684893 43.849 0.63281 41.2187H11.8047C11.9609 42.8333 12.3776 44.2266 13.0547 45.3984C13.7578 46.5443 14.6823 47.4297 15.8281 48.0547C16.974 48.6797 18.3151 48.9922 19.8516 48.9922C21.2839 48.9922 22.5078 48.7187 23.5234 48.1719C24.5391 47.625 25.3594 46.8698 25.9844 45.9062C26.6094 44.9167 27.0651 43.7708 27.3516 42.4687C27.6641 41.1406 27.8203 39.7083 27.8203 38.1719C27.8203 36.6354 27.638 35.2422 27.2734 33.9922C26.9089 32.7422 26.349 31.6615 25.5937 30.75C24.8385 29.8385 23.875 29.1354 22.7031 28.6406C21.5573 28.1458 20.2161 27.8984 18.6797 27.8984C16.5964 27.8984 14.9818 28.224 13.8359 28.875C12.7161 29.526 11.7786 30.2682 11.0234 31.1016Z" fill="#F24822"/>
</svg>
