<svg width="40" height="59" viewBox="0 0 40 59" fill="none" xmlns="http://www.w3.org/2000/svg">
<path d="M29.4609 0.539061H31.1016V9.52344H30.4375C27.4687 9.52344 24.8255 9.96614 22.5078 10.8516C20.1901 11.737 18.224 13 16.6094 14.6406C15.0208 16.2552 13.7969 18.2083 12.9375 20.5C12.1042 22.7917 11.6875 25.3568 11.6875 28.1953V37.6484C11.6875 39.6797 11.8828 41.4766 12.2734 43.0391C12.6901 44.5755 13.276 45.8646 14.0312 46.9062C14.8125 47.9219 15.724 48.6901 16.7656 49.2109C17.8073 49.7057 18.9792 49.9531 20.2812 49.9531C21.5052 49.9531 22.612 49.6927 23.6016 49.1719C24.6172 48.651 25.4766 47.9219 26.1797 46.9844C26.9089 46.0208 27.4557 44.901 27.8203 43.625C28.2109 42.3229 28.4062 40.9036 28.4062 39.3672C28.4062 37.8307 28.2109 36.4115 27.8203 35.1094C27.4557 33.8073 26.9089 32.6875 26.1797 31.75C25.4505 30.7865 24.5651 30.0443 23.5234 29.5234C22.4818 29.0026 21.3099 28.7422 20.0078 28.7422C18.237 28.7422 16.6745 29.1589 15.3203 29.9922C13.9922 30.7995 12.9505 31.8411 12.1953 33.1172C11.4401 34.3932 11.0365 35.7344 10.9844 37.1406L7.58593 34.9531C7.66406 32.9479 8.08073 31.0469 8.83593 29.25C9.61718 27.4531 10.6849 25.8646 12.0391 24.4844C13.4193 23.0781 15.0729 21.9844 17 21.2031C18.9271 20.3958 21.1016 19.9922 23.5234 19.9922C26.1797 19.9922 28.5104 20.5 30.5156 21.5156C32.5469 22.5312 34.2396 23.9245 35.5937 25.6953C36.9479 27.4661 37.9635 29.5104 38.6406 31.8281C39.3177 34.1458 39.6562 36.6198 39.6562 39.25C39.6562 42.0104 39.2005 44.5755 38.2891 46.9453C37.4036 49.3151 36.1146 51.3854 34.4219 53.1562C32.7552 54.9271 30.75 56.3073 28.4062 57.2969C26.0625 58.2865 23.4323 58.7812 20.5156 58.7812C17.4948 58.7812 14.7474 58.2344 12.2734 57.1406C9.82552 56.0208 7.71614 54.4583 5.94531 52.4531C4.17448 50.4479 2.80729 48.0651 1.84375 45.3047C0.906247 42.5443 0.437497 39.5234 0.437497 36.2422V31.8672C0.437497 27.2839 1.10156 23.0911 2.42968 19.2891C3.78385 15.4609 5.72396 12.1536 8.25 9.36719C10.776 6.55469 13.8229 4.38021 17.3906 2.84375C20.9583 1.30729 24.9818 0.539061 29.4609 0.539061Z" fill="#F24822"/>
</svg>
