<svg width="39" height="59" viewBox="0 0 39 59" fill="none" xmlns="http://www.w3.org/2000/svg">
<path d="M38.7578 42.4141C38.7578 45.9818 37.9245 48.9896 36.2578 51.4375C34.5911 53.8594 32.2995 55.6953 29.3828 56.9453C26.4922 58.1693 23.2109 58.7812 19.5391 58.7812C15.8672 58.7812 12.5729 58.1693 9.65625 56.9453C6.73958 55.6953 4.43489 53.8594 2.74218 51.4375C1.04948 48.9896 0.203122 45.9818 0.203122 42.4141C0.203122 40.0182 0.684893 37.8568 1.64843 35.9297C2.61198 33.9766 3.95312 32.3099 5.67187 30.9297C7.41666 29.5234 9.46093 28.4557 11.8047 27.7266C14.1484 26.9714 16.7005 26.5937 19.4609 26.5937C23.1589 26.5937 26.4661 27.2448 29.3828 28.5469C32.2995 29.849 34.5911 31.6849 36.2578 34.0547C37.9245 36.4245 38.7578 39.2109 38.7578 42.4141ZM27.4297 41.6719C27.4297 39.9271 27.0911 38.4297 26.4141 37.1797C25.763 35.9036 24.8385 34.9271 23.6406 34.25C22.4427 33.5729 21.0495 33.2344 19.4609 33.2344C17.8724 33.2344 16.4792 33.5729 15.2812 34.25C14.0833 34.9271 13.1458 35.9036 12.4687 37.1797C11.8177 38.4297 11.4922 39.9271 11.4922 41.6719C11.4922 43.3906 11.8177 44.875 12.4687 46.125C13.1458 47.375 14.0833 48.3385 15.2812 49.0156C16.5052 49.6667 17.9245 49.9922 19.5391 49.9922C21.1536 49.9922 22.5469 49.6667 23.7187 49.0156C24.9167 48.3385 25.8281 47.375 26.4531 46.125C27.1042 44.875 27.4297 43.3906 27.4297 41.6719ZM37.5469 16.2031C37.5469 19.0937 36.7786 21.6589 35.2422 23.8984C33.7057 26.112 31.5703 27.8437 28.8359 29.0937C26.1276 30.3437 23.0286 30.9687 19.5391 30.9687C16.0234 30.9687 12.8984 30.3437 10.1641 29.0937C7.42968 27.8437 5.29427 26.112 3.75781 23.8984C2.22135 21.6589 1.45312 19.0937 1.45312 16.2031C1.45312 12.7656 2.22135 9.875 3.75781 7.53125C5.32031 5.16146 7.45573 3.36458 10.1641 2.14062C12.8984 0.916665 15.9974 0.304686 19.4609 0.304686C22.9766 0.304686 26.0885 0.916665 28.7969 2.14062C31.5312 3.36458 33.6667 5.16146 35.2031 7.53125C36.7656 9.875 37.5469 12.7656 37.5469 16.2031ZM26.2969 16.7109C26.2969 15.1745 26.0234 13.8464 25.4766 12.7266C24.9297 11.5807 24.1484 10.6953 23.1328 10.0703C22.1432 9.44531 20.9193 9.13281 19.4609 9.13281C18.0547 9.13281 16.8437 9.43229 15.8281 10.0312C14.8385 10.6302 14.0703 11.5026 13.5234 12.6484C13.0026 13.7682 12.7422 15.1224 12.7422 16.7109C12.7422 18.2474 13.0026 19.6016 13.5234 20.7734C14.0703 21.9193 14.8516 22.8177 15.8672 23.4687C16.8828 24.1198 18.1068 24.4453 19.5391 24.4453C20.9714 24.4453 22.1823 24.1198 23.1719 23.4687C24.1875 22.8177 24.9557 21.9193 25.4766 20.7734C26.0234 19.6016 26.2969 18.2474 26.2969 16.7109Z" fill="#F24822"/>
</svg>
