<svg width="40" height="59" viewBox="0 0 40 59" fill="none" xmlns="http://www.w3.org/2000/svg">
<path d="M9.40625 49.4453H10.1484C13.2734 49.4453 15.9557 49.0677 18.1953 48.3125C20.4609 47.5312 22.3229 46.4115 23.7812 44.9531C25.2396 43.4948 26.3203 41.7109 27.0234 39.6016C27.7266 37.4661 28.0781 35.0443 28.0781 32.3359V21.5547C28.0781 19.4974 27.8698 17.6875 27.4531 16.125C27.0625 14.5625 26.4896 13.2734 25.7344 12.2578C25.0052 11.2161 24.1458 10.4349 23.1562 9.91406C22.1927 9.39323 21.125 9.13281 19.9531 9.13281C18.7031 9.13281 17.5964 9.44531 16.6328 10.0703C15.6693 10.6693 14.849 11.4896 14.1719 12.5312C13.5208 13.5729 13.013 14.7708 12.6484 16.125C12.3099 17.4531 12.1406 18.8464 12.1406 20.3047C12.1406 21.763 12.3099 23.1562 12.6484 24.4844C12.987 25.7865 13.4948 26.9453 14.1719 27.9609C14.849 28.9505 15.6953 29.7448 16.7109 30.3437C17.7266 30.9167 18.9245 31.2031 20.3047 31.2031C21.6328 31.2031 22.8177 30.9557 23.8594 30.4609C24.9271 29.9401 25.8255 29.263 26.5547 28.4297C27.3099 27.5964 27.8828 26.6719 28.2734 25.6562C28.6901 24.6406 28.8984 23.612 28.8984 22.5703L32.6094 24.6016C32.6094 26.4245 32.2187 28.2214 31.4375 29.9922C30.6562 31.763 29.5625 33.3776 28.1562 34.8359C26.776 36.2682 25.1745 37.4141 23.3516 38.2734C21.5286 39.1328 19.5755 39.5625 17.4922 39.5625C14.8359 39.5625 12.4792 39.0807 10.4219 38.1172C8.36458 37.1276 6.61979 35.7734 5.1875 34.0547C3.78125 32.3099 2.71354 30.2786 1.98437 27.9609C1.25521 25.6432 0.890623 23.1302 0.890623 20.4219C0.890623 17.6615 1.33333 15.0703 2.21875 12.6484C3.13021 10.2266 4.41927 8.09114 6.08593 6.24219C7.77864 4.39323 9.79687 2.94791 12.1406 1.90625C14.5104 0.83854 17.1406 0.304686 20.0312 0.304686C22.9219 0.304686 25.5521 0.864581 27.9219 1.98437C30.2917 3.10416 32.3229 4.69271 34.0156 6.75C35.7083 8.78125 37.0104 11.2161 37.9219 14.0547C38.8594 16.8932 39.3281 20.0443 39.3281 23.5078V27.4141C39.3281 31.112 38.9245 34.5495 38.1172 37.7266C37.3359 40.9036 36.151 43.7812 34.5625 46.3594C33 48.9115 31.0469 51.099 28.7031 52.9219C26.3854 54.7448 23.6901 56.138 20.6172 57.1016C17.5443 58.0651 14.1068 58.5469 10.3047 58.5469H9.40625V49.4453Z" fill="#F24822"/>
</svg>
