<svg width="39" height="58" viewBox="0 0 39 58" fill="none" xmlns="http://www.w3.org/2000/svg">
<path d="M27.2422 39.5391V0.124998H38.9219V39.5391C38.9219 43.3411 38.0885 46.6094 36.4219 49.3437C34.7552 52.0521 32.4766 54.1354 29.5859 55.5937C26.7214 57.0521 23.4922 57.7812 19.8984 57.7812C16.1745 57.7812 12.8802 57.1562 10.0156 55.9062C7.15104 54.6562 4.89843 52.7422 3.25781 50.1641C1.61719 47.5599 0.796873 44.2656 0.796873 40.2812H12.5547C12.5547 42.3646 12.8411 44.0182 13.4141 45.2422C14.013 46.4661 14.8594 47.3385 15.9531 47.8594C17.0469 48.3802 18.362 48.6406 19.8984 48.6406C21.3828 48.6406 22.6719 48.2891 23.7656 47.5859C24.8594 46.8828 25.7057 45.8542 26.3047 44.5C26.9297 43.1458 27.2422 41.4922 27.2422 39.5391Z" fill="#F24822"/>
</svg>
