<svg width="49" height="69" viewBox="0 0 49 69" fill="none" xmlns="http://www.w3.org/2000/svg">
<path d="M32.8984 49.5625L48.2891 61.75L40.9062 68.1562L25.75 55.9687L32.8984 49.5625ZM48.6797 28.2344V30.9297C48.6797 35.2526 48.0937 39.1328 46.9219 42.5703C45.776 46.0078 44.1224 48.9375 41.9609 51.3594C39.7995 53.7552 37.2474 55.5911 34.3047 56.8672C31.362 58.1432 28.0937 58.7812 24.5 58.7812C20.9323 58.7812 17.6641 58.1432 14.6953 56.8672C11.7266 55.5911 9.16146 53.7552 7 51.3594C4.83854 48.9375 3.15885 46.0078 1.96094 42.5703C0.78906 39.1328 0.203123 35.2526 0.203123 30.9297V28.2344C0.203123 23.8854 0.78906 20.0052 1.96094 16.5937C3.15885 13.1562 4.82552 10.2266 6.96093 7.80469C9.09635 5.38281 11.6484 3.53385 14.6172 2.25781C17.5859 0.981769 20.8542 0.343748 24.4219 0.343748C28.0156 0.343748 31.2839 0.981769 34.2266 2.25781C37.1953 3.53385 39.7604 5.38281 41.9219 7.80469C44.0833 10.2266 45.75 13.1562 46.9219 16.5937C48.0937 20.0052 48.6797 23.8854 48.6797 28.2344ZM36.8437 30.9297V28.1562C36.8437 25.1354 36.5573 22.4792 35.9844 20.1875C35.4375 17.8958 34.6302 15.9687 33.5625 14.4062C32.5208 12.8437 31.2318 11.6719 29.6953 10.8906C28.1589 10.0833 26.401 9.67969 24.4219 9.67969C22.4427 9.67969 20.6849 10.0833 19.1484 10.8906C17.612 11.6719 16.3229 12.8437 15.2812 14.4062C14.2396 15.9687 13.4453 17.8958 12.8984 20.1875C12.3516 22.4792 12.0781 25.1354 12.0781 28.1562V30.9297C12.0781 33.9245 12.3516 36.5807 12.8984 38.8984C13.4453 41.1901 14.2396 43.1302 15.2812 44.7187C16.349 46.2812 17.651 47.4661 19.1875 48.2734C20.75 49.0807 22.5208 49.4844 24.5 49.4844C26.4792 49.4844 28.224 49.0807 29.7344 48.2734C31.2708 47.4661 32.5599 46.2812 33.6016 44.7187C34.6693 43.1302 35.4766 41.1901 36.0234 38.8984C36.5703 36.5807 36.8437 33.9245 36.8437 30.9297Z" fill="#F24822"/>
</svg>
